<?xml version="1.0" encoding="utf-8"?>
<!-- Generator: Adobe Illustrator 23.0.1, SVG Export Plug-In . SVG Version: 6.00 Build 0)  -->
<svg version="1.1" id="Layer_2" xmlns="http://www.w3.org/2000/svg" xmlns:xlink="http://www.w3.org/1999/xlink" x="0px" y="0px"
	 viewBox="0 0 1000 1000" style="enable-background:new 0 0 1000 1000;" xml:space="preserve">
<style type="text/css">
	.st0{fill:none;}
</style>
<g>
	<path d="M114.63,460.06c-5.81,0-41.02,0.77-44.12,0.77c-3.1,0-3.1-3.48,0-3.48c9.67,0,15.48-0.39,17.8-0.77
		c5.42-5.42,6.97-13.93,7.74-34.83c0.77-21.28,1.16-59.6,1.16-77.4v-51.47c0-95.2-1.94-96.75-20.9-96.75h-6.97
		c-3.1,0-3.1-3.48,0-3.48c10.84,0,37.93,1.16,43.73,1.16c5.42,0,30.96-1.16,41.79-1.16c3.1,0,3.1,3.48,0,3.48h-6.97
		c-18.96,0-21.28,1.55-21.28,96.75v54.18l69.66-75.08c30.19-32.51,44.89-55.73,44.89-66.56c-0.39-6.19-5.42-9.67-15.09-9.67
		c-3.1,0-7.35,1.55-8.9,1.55c-1.94,0-3.48-1.16-3.48-2.32c0-1.16,1.16-2.32,4.26-2.32c6.58,0,35.99,0.77,42.18,0.77
		c5.03,0,31.35-0.77,41.02-0.77c2.71,0,2.32,3.48,0,3.48h-0.77c-27.09,0-40.25,14.32-100.62,78.17l-37.15,39.86
		c7.35-4.64,16.25-8.13,27.09-8.13c12.77,0,17.41,1.55,23.99,5.03c23.99,12.38,29.41,36.76,44.12,71.21
		c24.77,62.31,34.44,75.08,54.57,75.08h4.64c5.03,0,4.64,3.48-0.77,3.48H303.1c-13.54,0-22.06,1.55-27.86,1.55
		c-8.51,0-13.54-2.32-19.35-9.29c-7.35-9.29-15.48-27.86-26.7-58.44c-12-34.06-27.09-80.88-51.86-80.88
		c-7.35,0-12.77,0.39-24.38,10.45l-26.32,28.25v8.13c0,95.2,1.94,96.75,20.9,96.75h8.51c3.1,0,3.1,3.48,0,3.48
		S120.44,460.06,114.63,460.06z"/>
	<path d="M323.23,421.75c0-25.93,25.15-51.47,96.75-79.33l32.12-12.38c-1.55-48.37-13.93-63.08-41.41-63.08
		c-34.06,0-41.41,30.57-49.92,42.96c-3.48,5.03-6.97,6.97-17.42,6.97c-9.29,0-15.48-3.48-15.48-8.9c0-4.64,3.87-12,13.54-18.19
		c15.48-10.06,47.99-26.32,75.46-26.32c37.93,0,65.4,19.74,65.4,70.43c0,25.93-3.1,69.66-3.1,84.75c0,22.06,2.71,32.89,10.84,32.89
		c6.97,0,16.64-13.54,20.9-21.28c1.94-3.1,6.58,0,4.64,3.1c-6.19,8.9-30.57,31.35-45.67,31.35c-14.71,0-22.06-10.06-22.06-27.48
		c0-10.06,0.77-23.61,1.55-31.73c-10.45,17.8-51.08,59.6-78.17,59.6C340.25,465.09,323.23,445.35,323.23,421.75z M390.56,448.06
		c21.67,0,56.11-38.7,59.6-51.47c0.39-5.03,2.32-23.99,2.32-55.73v-8.13l-31.73,13.54c-56.89,23.99-70.43,35.6-70.43,64.24
		C350.32,431.42,371.6,448.06,390.56,448.06z"/>
	<path d="M701.32,422.91c0,34.06,5.42,34.83,18.58,34.44c3.1,0,3.1,3.48,0,3.48s-28.25-0.77-34.44-0.77
		c-5.8,0-21.67,0.77-32.89,0.77c-3.1,0-3.1-3.48,0-3.48c15.87,0,20.12-2.71,20.12-36.76l-0.39-82.43
		c-0.39-47.99-23.22-63.08-46.83-63.08c-24.38,0-40.25,10.84-58.44,35.22v147.06h20.12c3.1,0,3.1,3.48,0,3.48
		s-23.22-0.77-29.41-0.77c-5.8,0-25.93,0.77-37.15,0.77c-3.1,0-3.1-3.48,0-3.48c16.64,0,17.41-4.64,17.41-42.57v-99.84
		c0-11.22-8.9-21.28-17.8-29.41c-1.16-1.16-0.77-1.94,0-2.32c6.96-2.71,21.67-9.67,28.25-16.25c0.77-0.77,1.16-0.77,2.32,0.39
		c6.97,6.97,15.09,22.45,15.87,38.31c19.74-26.32,41.8-42.18,71.59-42.18c34.83,0,63.08,17.8,63.08,78.56V422.91z"/>
	<path d="M909.14,361.38c3.48,1.94,2.71,7.74,0.39,9.29c-21.29-1.55-45.67-2.71-77.01-2.71s-57.28,1.16-77.79,2.71
		c-3.1-1.55-2.32-7.35-0.39-9.29c19.35,1.16,47.21,2.32,78.17,2.32C864.25,363.7,890.56,362.54,909.14,361.38z"/>
	<path d="M182.74,808.83c-13.16,0-59.98-1.16-59.98-1.16l-54.57,1.16c-3.87,0-3.87-2.71,0-2.71c22.45,0,25.93-2.71,29.02-51.47
		c1.94-26.7,0.39-80.11,0.39-97.91c0-17.8-1.16-56.11-1.16-77.4c0-34.83-0.77-35.22-25.54-35.22c-3.1,0-3.1-3.48,0-3.48
		s41.41,0.77,47.21,0.77c5.8,0,51.86-0.77,63.08-0.77c79.72,0,147.83,53.41,147.83,134.29
		C329.03,754.27,265.95,808.83,182.74,808.83z M180.42,544.13h-25.54c-26.32,0-26.7,1.94-26.7,96.75v105.65
		c0,29.8-1.55,50.31-3.1,56.89c9.29,0,41.02,1.55,58.44,1.55c70.05,0,111.07-50.7,111.07-130.03
		C294.58,595.21,249.69,544.13,180.42,544.13z"/>
	<path d="M361.53,715.96c0-55.73,42.57-104.49,102.17-104.49c54.57,0,95.2,38.31,95.2,97.91c0,49.92-42.96,103.33-101.39,103.33
		C402.94,812.7,361.53,774.39,361.53,715.96z M527.55,715.57c0-48.37-25.93-100.23-68.5-100.23c-45.28,0-65.4,37.54-65.4,94.04
		c0,47.6,25.54,99.07,70.43,99.07C505.1,808.45,527.55,772.84,527.55,715.57z"/>
	<path d="M952,21c14.89,0,27,12.11,27,27v904c0,14.89-12.11,27-27,27H48c-14.89,0-27-12.11-27-27V48c0-14.89,12.11-27,27-27H952
		 M952,0H48C21.49,0,0,21.49,0,48v904c0,26.51,21.49,48,48,48h904c26.51,0,48-21.49,48-48V48C1000,21.49,978.51,0,952,0L952,0z"/>
	<rect x="3.6" class="st0" width="996.4" height="1000"/>
	<rect y="0" class="st0" width="1000" height="1000"/>
	<path d="M861.88,687.5C853.38,644.38,815.5,612,770,612c-36.13,0-67.5,20.5-83.13,50.5c-37.63,4-66.88,35.88-66.88,74.5
		c0,41.38,33.63,75,75,75h162.5c34.5,0,62.5-28,62.5-62.5C920,716.5,894.38,689.75,861.88,687.5z M857.5,787H695
		c-27.63,0-50-22.38-50-50c0-25.63,19.13-47,44.5-49.63l13.38-1.38l6.25-11.88C721,651.25,744.25,637,770,637
		c32.75,0,61,23.25,67.38,55.38l3.75,18.75l19.13,1.38c19.5,1.25,34.75,17.63,34.75,37C895,770.13,878.13,787,857.5,787z
		 M745,739.25l-26.13-26.13l-17.63,17.63L745,774.5l75.13-75.13l-17.63-17.63L745,739.25z"/>
</g>
</svg>
